<svg width="70" height="70" viewBox="0 0 70 70" fill="none" xmlns="http://www.w3.org/2000/svg">
<circle cx="35" cy="35" r="35" fill="#FFD637" fill-opacity="0.27"/>
<ellipse cx="34.5" cy="35" rx="22.5" ry="22" fill="#FFD637"/>
<path d="M32.7455 32.2958C32.7455 44.236 48.6409 40.0789 36.3161 40.0789C23.9913 40.0789 14 48.56 14 36.6197C14 24.6795 23.9913 15 36.3161 15C48.6409 15 32.7455 20.3555 32.7455 32.2958Z" fill="white" fill-opacity="0.67"/>
<path d="M52 38.0238C52 50.1872 47.816 53 35.506 53C23.1961 53 15 50.1872 15 38.0238C15 25.8604 24.9792 16 37.2892 16C49.5991 16 52 25.8604 52 38.0238Z" fill="#FFD637"/>
<rect x="14" y="32" width="4" height="10" fill="#FFD637"/>
<rect x="34" y="15" width="8" height="4" fill="#FFD637"/>
</svg>
